<svg width="34" height="40" viewBox="0 0 34 40" fill="none" xmlns="http://www.w3.org/2000/svg">
<path d="M7.23689 19.1126C7.22909 19.2823 7.15409 19.442 7.02849 19.5564C6.90289 19.6709 6.73697 19.7307 6.56723 19.7229C6.39749 19.715 6.23784 19.64 6.12338 19.5144C6.00892 19.3888 5.94905 19.2229 5.95692 19.0532C5.96026 18.9687 5.98027 18.8858 6.0158 18.8091C6.05133 18.7324 6.10168 18.6636 6.16394 18.6064C6.22621 18.5493 6.29916 18.505 6.3786 18.4762C6.45804 18.4474 6.5424 18.4346 6.62681 18.4385C6.71123 18.4424 6.79403 18.463 6.87046 18.499C6.94689 18.5351 7.01539 18.5859 7.07219 18.6486C7.12889 18.7112 7.17259 18.7845 7.20089 18.8641C7.22919 18.9437 7.24139 19.0282 7.23689 19.1126ZM33.7038 29.0229C33.5346 29.4065 33.227 29.7008 32.8378 29.8517L30.9152 30.5971C30.7352 30.6671 30.5438 30.703 30.3507 30.703C29.7226 30.703 29.1285 30.3226 28.8881 29.7026L28.7517 29.3508L27.3279 29.9449C27.3886 30.3861 27.3097 30.8404 27.0913 31.2374C26.8223 31.7265 26.3789 32.0825 25.8411 32.2415C25.9887 32.757 25.9422 33.3267 25.6661 33.8283C25.2536 34.5786 24.4471 34.9778 23.6439 34.9103C23.6507 35.2732 23.5621 35.6316 23.3869 35.9496C23.1158 36.4427 22.667 36.8005 22.1233 36.957C21.8242 37.0439 21.5094 37.063 21.2019 37.013C21.1955 37.351 21.1069 37.6823 20.9437 37.9784C20.6724 38.4716 20.2045 38.8421 19.66 38.9947C19.4751 39.0468 19.284 39.0733 19.092 39.0736C18.7356 39.0737 18.3855 38.9801 18.0768 38.8021L17.6122 38.5353C17.3415 38.889 16.9675 39.1493 16.531 39.2815C16.3273 39.3436 16.1155 39.3752 15.9026 39.3754C15.5546 39.3754 15.2104 39.29 14.8958 39.1218C14.4669 38.893 14.1287 38.5252 13.9365 38.0788C13.3719 38.2929 12.7236 38.2689 12.1599 37.9674C11.777 37.7623 11.4655 37.4456 11.2668 37.0594C10.6666 37.3533 9.93999 37.3653 9.30879 37.0277C8.80449 36.7579 8.43489 36.3065 8.26819 35.7564C8.18409 35.4809 8.15609 35.1913 8.18609 34.9047C7.85059 34.8974 7.52159 34.8111 7.22579 34.6529C6.72145 34.3832 6.35184 33.9317 6.1852 33.3815C6.0184 32.8314 6.0752 32.2507 6.34489 31.7464L6.8438 30.8135C6.73536 30.5417 6.67965 30.2502 6.62661 29.965C6.53551 29.4756 6.46137 29.1492 6.26715 29.0738C6.17708 29.0388 5.96739 28.9517 5.22169 28.6197L5.04809 29.0125C4.7895 29.5972 4.2145 29.9458 3.61286 29.9458C3.40153 29.9458 3.18708 29.9028 2.98176 29.8121L1.09567 28.9785C0.713869 28.8097 0.420199 28.5015 0.268949 28.1105C0.117699 27.7195 0.127309 27.294 0.296059 26.9122L4.62637 17.1148C4.79512 16.733 5.10333 16.4394 5.49434 16.2881C5.8852 16.1368 6.31075 16.1464 6.6927 16.3152L8.57879 17.1488C9.36889 17.4979 9.72759 18.4249 9.37839 19.2151L9.08719 19.8738L10.2394 20.4053C10.2545 20.4123 10.2694 20.42 10.284 20.4281C10.93 20.7916 11.6203 20.6297 12.4942 20.4249C13.6636 20.1508 15.1004 19.8144 16.7813 20.783C19.1046 19.3685 20.8884 20.0957 22.207 20.6347C23.1601 21.0242 23.7262 21.2304 24.2801 20.9424L25.2836 20.4052L25.016 19.715C24.7038 18.9094 25.1051 18.0001 25.9104 17.6879L27.8331 16.9426C28.2223 16.7916 28.6479 16.8019 29.0314 16.971C29.4149 17.1403 29.7093 17.4478 29.8601 17.8369L33.732 27.8244C33.8832 28.2138 33.8731 28.6394 33.7038 29.0229ZM3.90504 28.5072L8.23529 18.7098C8.28079 18.6067 8.25769 18.514 8.23999 18.4679C8.22209 18.4218 8.17679 18.3376 8.07369 18.2921L6.18755 17.4585C6.1482 17.441 6.10561 17.4319 6.06255 17.4319C6.01294 17.4319 5.97176 17.4437 5.94567 17.4539C5.89958 17.4718 5.81544 17.517 5.76989 17.6201L1.43965 27.4175C1.39403 27.5206 1.41715 27.6133 1.43497 27.6594C1.45278 27.7055 1.49809 27.7897 1.60122 27.8352L3.48739 28.6688C3.64426 28.7383 3.83559 28.6641 3.90504 28.5072ZM8.77799 33.4754L10.0015 31.3582C10.1847 30.9318 10.0121 30.4319 9.60139 30.2127C9.16449 29.9795 8.61929 30.1444 8.38609 30.5806L7.44719 32.3359C7.33489 32.5458 7.31159 32.7884 7.38149 33.019C7.45139 33.2497 7.60539 33.4385 7.81539 33.5508C8.12389 33.7157 8.50029 33.6832 8.77799 33.4754ZM11.1167 35.5511L12.4752 32.9201C12.5441 32.5409 12.3586 32.1463 12.0178 31.9644C11.7066 31.7982 11.3274 31.8321 11.0491 32.0436L9.53049 34.7107C9.41819 34.9207 9.39489 35.1632 9.46469 35.3938C9.53469 35.6244 9.68869 35.8133 9.89859 35.9255C10.3347 36.1588 10.881 35.9908 11.1167 35.5511ZM13.8814 36.6229L15.0829 34.3139C15.1513 33.9349 14.9658 33.5408 14.6252 33.359C14.2859 33.1779 13.8583 33.2398 13.5815 33.502L12.2778 36.0269C12.2608 36.3719 12.4426 36.701 12.7495 36.8652C13.1351 37.0714 13.6151 36.9662 13.8814 36.6229ZM16.7003 37.6513L17.6004 35.968C17.7623 35.6652 17.7341 35.2889 17.5285 35.0092C17.4503 34.9027 17.3491 34.8153 17.2325 34.7534C16.8931 34.5721 16.4651 34.6344 16.1883 34.8974L15.0157 37.1511C14.9875 37.5035 15.1724 37.852 15.4854 38.0195C15.9219 38.2529 16.4669 38.0876 16.7003 37.6513ZM19.5097 36.2113C19.4788 36.194 18.9286 35.8722 18.9286 35.8722C18.8929 36.1089 18.8185 36.341 18.7026 36.5576L18.2271 37.4468L18.6994 37.7181C18.8863 37.8254 19.1076 37.8513 19.3227 37.7911C19.5462 37.7284 19.7379 37.5771 19.8485 37.376C20.0745 36.9651 19.9226 36.4427 19.5097 36.2113ZM18.1724 32.0484C18.1005 32.0084 18.0372 31.9545 17.9861 31.8899C17.9351 31.8254 17.8973 31.7514 17.8749 31.6721C17.8526 31.5929 17.8461 31.5101 17.8558 31.4283C17.8656 31.3466 17.8914 31.2676 17.9317 31.1959C17.9721 31.1241 18.0262 31.0611 18.091 31.0103C18.1558 30.9596 18.23 30.9221 18.3094 30.9001C18.3887 30.8781 18.4716 30.872 18.5532 30.8821C18.6349 30.8922 18.7138 30.9184 18.7854 30.959L23.4122 33.5625C23.8244 33.7891 24.3444 33.6381 24.571 33.2258C24.7956 32.8176 24.6423 32.2962 24.2292 32.0636C23.1445 31.4561 21.9152 30.7676 20.7058 30.0753C20.5635 29.9921 20.4599 29.8562 20.4173 29.697C20.3748 29.5377 20.3969 29.3682 20.4788 29.2251C20.5606 29.0821 20.6957 28.9772 20.8545 28.9333C21.0133 28.8893 21.1831 28.9099 21.3269 28.9905C22.5316 29.6803 23.7586 30.3675 24.8411 30.9738C25.0344 31.0819 25.2611 31.1073 25.479 31.0451C25.7021 30.9812 25.8857 30.8356 25.996 30.6351C26.129 30.3932 26.1347 30.109 26.0115 29.8553C25.9331 29.6937 25.8075 29.5598 25.6513 29.4711L20.5379 26.5566C19.7049 26.082 18.638 26.514 17.4023 27.0142C15.5192 27.7765 13.176 28.7251 11.1594 26.1301C11.0158 25.9454 10.961 25.717 11.005 25.4871C11.049 25.2567 11.1851 25.0644 11.3878 24.9459C12.8238 24.1078 14.0358 23.1937 14.9906 22.2288C15.2004 22.0167 15.4184 21.8129 15.6444 21.618C14.6142 21.2128 13.7176 21.4222 12.7796 21.6421C11.7847 21.8753 10.7564 22.1165 9.69429 21.5304L8.58199 21.0173L5.72715 27.4765C6.39114 27.772 6.63684 27.8765 6.71965 27.9086C7.42079 28.1808 7.65609 28.8076 7.78279 29.3719C8.43549 28.8158 9.38879 28.6824 10.1899 29.1099C10.7908 29.4306 11.1799 30.0022 11.2915 30.6311C11.7431 30.5661 12.2037 30.6469 12.6062 30.8615C13.0923 31.1201 13.4599 31.5561 13.6327 32.0789C14.1629 31.933 14.729 31.9964 15.2137 32.2561C15.6997 32.5147 16.0674 32.9507 16.2402 33.4733C16.7706 33.3274 17.3367 33.391 17.8215 33.6508C18.0654 33.7805 18.2815 33.9566 18.4577 34.1693L21.1352 35.6849C21.3306 35.7936 21.5588 35.8187 21.7776 35.7557C21.9994 35.6919 22.1819 35.5467 22.2918 35.347C22.5165 34.9386 22.3631 34.4173 21.9501 34.1849M28.2998 28.185L25.739 21.5795L24.8636 22.048C23.7623 22.6208 22.7314 22.1994 21.7343 21.7919C20.4298 21.2586 19.0807 20.707 17.1426 22.0365C16.7262 22.321 16.3015 22.6812 15.8793 23.1079C14.9532 24.0437 13.8118 24.9304 12.4813 25.7479C13.8244 27.1139 15.2744 26.527 16.9333 25.8554C18.3415 25.2852 19.7977 24.6958 21.1569 25.4704L26.2704 28.385C26.4686 28.4977 26.6475 28.6413 26.8004 28.8104L28.2998 28.185ZM32.5669 28.2765L28.695 18.289C28.6543 18.1838 28.5723 18.1347 28.5271 18.1147C28.4861 18.0967 28.4418 18.0872 28.397 18.0871C28.3588 18.0871 28.3209 18.0943 28.2853 18.1082L26.3626 18.8535C26.2025 18.9155 26.1197 19.1033 26.1818 19.2634L30.0537 29.2508C30.1157 29.4108 30.3032 29.4935 30.4635 29.4315L32.3861 28.6861C32.4912 28.6454 32.5404 28.5635 32.5603 28.5183C32.5801 28.4731 32.6076 28.3815 32.5669 28.2765ZM27.8011 19.0712C27.4472 19.0712 27.1604 19.358 27.1604 19.7119C27.1604 19.8818 27.2279 20.0447 27.348 20.1649C27.4682 20.2851 27.6311 20.3526 27.8011 20.3526C27.971 20.3526 28.134 20.2851 28.2541 20.1649C28.3743 20.0447 28.4418 19.8818 28.4418 19.7119C28.4418 19.5419 28.3743 19.379 28.2541 19.2588C28.134 19.1387 27.971 19.0712 27.8011 19.0712ZM28.5957 15.0155C28.605 15.1027 28.5958 15.1909 28.5688 15.2743C28.5418 15.3577 28.4976 15.4345 28.439 15.4997C28.3804 15.5649 28.3088 15.6171 28.2287 15.6528C28.1486 15.6885 28.0619 15.707 27.9743 15.7071H21.9928C22.004 15.7809 22.014 15.8551 22.022 15.9301C22.0313 16.0172 22.0222 16.1054 21.9952 16.1888C21.9682 16.2722 21.9239 16.349 21.8653 16.4142C21.8067 16.4795 21.7351 16.5316 21.655 16.5673C21.575 16.6031 21.4883 16.6216 21.4006 16.6216H12.6004C12.5127 16.6216 12.426 16.6032 12.3459 16.5675C12.2658 16.5317 12.1942 16.4796 12.1355 16.4144C12.0769 16.3492 12.0327 16.2723 12.0057 16.1889C11.9788 16.1055 11.9696 16.0173 11.979 15.9301C11.987 15.8552 11.9969 15.7809 12.0081 15.7071H6.02669C5.93899 15.7071 5.85226 15.6887 5.77216 15.653C5.69205 15.6173 5.62036 15.5651 5.56175 15.4999C5.50313 15.4347 5.45891 15.3578 5.43195 15.2744C5.40499 15.1909 5.3959 15.1027 5.40528 15.0155C5.57169 13.4606 6.53817 12.1748 7.87059 11.5452C7.46939 11.1 7.22479 10.5111 7.22479 9.86599C7.22479 8.48115 8.35149 7.35459 9.73619 7.35459C11.121 7.35459 12.2476 8.48123 12.2476 9.86599C12.2476 10.5134 12.0013 11.1044 11.5976 11.5501C12.2843 11.8768 12.8814 12.3792 13.3193 13.0093C13.789 12.5102 14.3555 12.1122 14.9842 11.8394C14.4619 11.3205 14.1379 10.6022 14.1379 9.80967C14.1379 8.23123 15.4221 6.94701 17.0005 6.94701C18.579 6.94701 19.8632 8.23123 19.8632 9.80967C19.8632 10.6023 19.5392 11.3205 19.0169 11.8394C19.6455 12.1123 20.212 12.5103 20.6818 13.0094C21.1196 12.3793 21.7167 11.8769 22.4035 11.5502C21.9997 11.1044 21.7534 10.5135 21.7534 9.86607C21.7534 8.48123 22.8801 7.35467 24.2648 7.35467C25.6496 7.35467 26.7762 8.48131 26.7762 9.86607C26.7762 10.5112 26.5316 11.1 26.1304 11.5453C27.4627 12.1747 28.4294 13.4605 28.5957 15.0155ZM24.2647 11.1275C24.9603 11.1275 25.5261 10.5616 25.5261 9.86607C25.5261 9.17053 24.9603 8.60467 24.2647 8.60467C23.5692 8.60467 23.0033 9.17053 23.0033 9.86607C23.0033 10.5616 23.5692 11.1275 24.2647 11.1275ZM17.0004 11.4222C17.8897 11.4222 18.6131 10.6988 18.6131 9.80959C18.6131 8.92037 17.8897 8.19693 17.0004 8.19693C16.1113 8.19693 15.3879 8.92037 15.3879 9.80959C15.3879 10.6988 16.1114 11.4222 17.0004 11.4222ZM9.73619 11.1275C10.4318 11.1275 10.9976 10.5616 10.9976 9.86607C10.9976 9.17053 10.4318 8.60467 9.73619 8.60467C9.04069 8.60467 8.47479 9.17053 8.47479 9.86607C8.47479 10.5616 9.04069 11.1275 9.73619 11.1275ZM12.3673 14.457C12.4164 14.3429 12.4698 14.2306 12.5272 14.1204C12.011 13.0674 10.9233 12.3774 9.73619 12.3774C8.38699 12.3774 7.22749 13.2337 6.80262 14.457H12.3673ZM20.64 15.3715C20.1667 13.7926 18.7076 12.6722 17.0004 12.6722C15.2932 12.6722 13.8341 13.7926 13.3609 15.3715H20.64ZM27.1983 14.457C26.7735 13.2337 25.614 12.3774 24.2647 12.3774C23.0777 12.3774 21.9901 13.0674 21.4737 14.1204C21.5312 14.2306 21.5845 14.3429 21.6336 14.457H27.1983ZM32.2232 17.0972C32.2232 17.263 32.289 17.422 32.4062 17.5392C32.5234 17.6564 32.6824 17.7222 32.8482 17.7222C33.0139 17.7222 33.1729 17.6564 33.2901 17.5392C33.4073 17.422 33.4732 17.263 33.4732 17.0972C33.4732 14.1843 32.702 11.3211 31.2431 8.81732C31.159 8.67541 31.0222 8.5725 30.8625 8.53103C30.7029 8.48957 30.5333 8.5129 30.3908 8.59595C30.2482 8.679 30.1443 8.81503 30.1017 8.97438C30.059 9.13373 30.0811 9.30348 30.1631 9.44662C31.5108 11.7596 32.2232 14.4051 32.2232 17.0972ZM1.15278 17.7222C1.31854 17.7222 1.47751 17.6564 1.59472 17.5392C1.71193 17.422 1.77778 17.263 1.77778 17.0972C1.77778 13.7568 2.8602 10.6648 4.69153 8.15178L4.73637 9.40092C4.73932 9.48294 4.75839 9.56358 4.7925 9.63824C4.82661 9.71289 4.87509 9.7801 4.93517 9.83601C4.99525 9.89193 5.06576 9.93547 5.14267 9.96414C5.21958 9.99281 5.30138 10.006 5.3834 10.0031C5.46543 10.0002 5.54607 9.98109 5.62073 9.94698C5.69538 9.91287 5.76258 9.86439 5.8185 9.80431C5.87442 9.74422 5.91796 9.67371 5.94663 9.59681C5.9753 9.5199 5.98854 9.4381 5.98559 9.35607L5.89028 6.70256C8.66999 3.73342 12.6219 1.87451 17.0004 1.87451C20.2228 1.87451 23.365 2.90287 25.9558 4.78795L24.6967 4.83318C24.531 4.83913 24.3745 4.91064 24.2616 5.03198C24.1487 5.15332 24.0886 5.31456 24.0945 5.48021C24.1005 5.64587 24.172 5.80238 24.2933 5.91531C24.4146 6.02824 24.5759 6.08835 24.7415 6.0824L27.6633 5.97748C27.758 5.97409 27.8508 5.94918 27.9345 5.90463C28.0182 5.86008 28.0907 5.79707 28.1465 5.72036C28.2022 5.64365 28.2398 5.55526 28.2563 5.46188C28.2729 5.3685 28.268 5.27258 28.2419 5.18139L27.4397 2.3699C27.3943 2.21049 27.2873 2.07568 27.1424 1.99512C26.9976 1.91456 26.8266 1.89485 26.6672 1.94033C26.5078 1.98581 26.373 2.09275 26.2924 2.23763C26.2119 2.38251 26.1922 2.55346 26.2376 2.71287L26.5031 3.64326C23.7361 1.68889 20.4098 0.624512 17.0004 0.624512C12.2376 0.624512 7.94119 2.65709 4.93098 5.89951L2.27301 6.65787C2.11361 6.70336 1.97882 6.81031 1.89827 6.95519C1.81772 7.10007 1.79803 7.27101 1.84352 7.43041C1.88901 7.58981 1.99596 7.72461 2.14084 7.80515C2.28572 7.8857 2.45666 7.90539 2.61606 7.8599L3.55395 7.59232C1.6488 10.2795 0.527779 13.5598 0.527779 17.0972C0.527779 17.263 0.593629 17.422 0.710839 17.5392C0.828049 17.6564 0.987019 17.7222 1.15278 17.7222Z" fill="#2644A2"/>
</svg>
