<svg width="40" height="40" viewBox="0 0 40 40" fill="none" xmlns="http://www.w3.org/2000/svg">
<path d="M39.4306 10.5029L39.4291 10.5015L36.8472 10.1331C36.7173 10.1147 36.5956 10.058 36.4978 9.9704C36.4001 9.88273 36.3305 9.76813 36.2979 9.64093C36.2653 9.51373 36.2711 9.37973 36.3147 9.25587C36.3582 9.13207 36.4375 9.02387 36.5426 8.94507L38.6293 7.38006C38.7701 7.2744 38.8633 7.1172 38.8881 6.94293C38.913 6.76866 38.8677 6.59166 38.7621 6.45083L36.3727 3.26496C36.267 3.12414 36.1098 3.03104 35.9355 3.00614C35.7612 2.98125 35.5842 3.0266 35.4434 3.13222L33.3574 4.69727C33.2524 4.77692 33.1261 4.82352 32.9946 4.83115C32.863 4.83877 32.7322 4.80708 32.6187 4.7401C32.5053 4.67312 32.4143 4.57388 32.3574 4.45503C32.3006 4.33618 32.2804 4.20309 32.2994 4.07271L32.6684 1.49083C32.6808 1.40455 32.676 1.31668 32.6544 1.23223C32.6329 1.14779 32.5949 1.06841 32.5426 0.998654C32.4904 0.928894 32.4249 0.870114 32.3499 0.82566C32.2749 0.781207 32.1919 0.75196 32.1056 0.73958L32.1049 0.7395L28.165 0.176661C28.0788 0.164271 27.9909 0.168997 27.9064 0.190569C27.822 0.21214 27.7426 0.250136 27.6728 0.302385C27.6031 0.354634 27.5443 0.420114 27.4998 0.495086C27.4554 0.570057 27.4261 0.653052 27.4137 0.739334L27.0447 3.32138C27.0262 3.45136 26.9695 3.57293 26.8819 3.67072C26.7943 3.7685 26.6796 3.8381 26.5524 3.8707C26.4253 3.90332 26.2913 3.89748 26.1674 3.85392C26.0436 3.81037 25.9354 3.73106 25.8566 3.62602L24.2922 1.53928C24.1866 1.39846 24.0294 1.30536 23.8551 1.28047C23.6809 1.25557 23.5038 1.30092 23.363 1.40654L21.3686 2.90323C20.4662 2.80732 19.5562 2.80732 18.6539 2.90323C12.7446 3.57865 8.11061 8.29126 7.53461 14.2111C7.51668 14.3989 7.51001 14.5854 7.50074 14.7719H7.30161C7.14881 14.7722 7.00081 14.8251 6.88254 14.9219C6.76434 15.0186 6.68308 15.1532 6.65249 15.3029L6.19385 17.4839L4.35667 16.2168C4.22889 16.1287 4.07423 16.0881 3.91962 16.1021C3.765 16.1162 3.62021 16.1841 3.51043 16.2938L1.51926 18.285C1.40965 18.3947 1.34193 18.5394 1.32787 18.6939C1.3138 18.8483 1.35428 19.0029 1.44227 19.1306L2.70334 20.9644L0.521687 21.4231C0.373597 21.4555 0.241076 21.5377 0.146165 21.6559C0.051254 21.7741 -0.000326786 21.9213 1.55794e-06 22.0729V24.7278C-6.66874e-05 24.8801 0.0522708 25.0278 0.14823 25.1462C0.244188 25.2644 0.377926 25.3462 0.526997 25.3776L2.70865 25.8362L1.44758 27.67C1.35959 27.7978 1.31911 27.9523 1.33318 28.1068C1.34724 28.2612 1.41496 28.4059 1.52457 28.5156L3.51574 30.5068C3.62552 30.6166 3.77031 30.6844 3.92493 30.6984C4.07954 30.7125 4.23419 30.672 4.36199 30.5838L6.19585 29.3194L6.65448 31.501C6.68501 31.6508 6.76628 31.7853 6.88454 31.882C7.00281 31.9788 7.15081 32.0318 7.30361 32.032H9.95848C10.1108 32.0321 10.2585 31.9798 10.3769 31.8838C10.4952 31.7878 10.5769 31.6541 10.6083 31.505L11.0669 29.3234L12.9008 30.5844C13.0285 30.6724 13.183 30.7129 13.3375 30.6988C13.492 30.6848 13.6366 30.617 13.7464 30.5074L14.7771 29.4734V31.365C14.7786 31.8289 14.902 32.2843 15.135 32.6855C15.368 33.0867 15.7024 33.4196 16.1046 33.6508V37.3385C16.1046 38.8047 17.2932 39.9934 18.7594 39.9934H21.4144C22.8806 39.9934 24.0692 38.8047 24.0692 37.3385V33.6508C24.4714 33.4196 24.8058 33.0867 25.0388 32.6855C25.2718 32.2843 25.3952 31.8289 25.3967 31.365V28.738C25.4056 28.194 25.5507 27.661 25.8189 27.1876C26.0871 26.7143 26.4698 26.3158 26.9318 26.0286C27.4827 25.6713 28.005 25.2719 28.4942 24.834L27.6088 23.845C27.1712 24.2372 26.7036 24.5948 26.2104 24.9143C25.5618 25.3213 25.0259 25.8848 24.6518 26.5528C24.2777 27.221 24.0774 27.9723 24.0692 28.738V31.365C24.0692 32.0982 23.475 32.6924 22.7418 32.6924H17.432C16.6988 32.6924 16.1046 32.0982 16.1046 31.365V28.6829C16.097 27.9318 15.9001 27.1948 15.5321 26.54C15.1641 25.8852 14.6369 25.3338 13.9992 24.9368C8.73868 21.6313 7.15368 14.6872 10.4592 9.4266C11.4682 7.82073 12.867 6.49603 14.5252 5.57565C16.1836 4.65527 18.0476 4.16909 19.9442 4.16231C19.9343 4.18595 19.9256 4.2101 19.9183 4.23466C19.8937 4.40893 19.9393 4.58583 20.0451 4.72648L21.6095 6.81253C21.69 6.91686 21.737 7.04313 21.7441 7.17473C21.7512 7.30633 21.7182 7.43693 21.6493 7.54926C21.583 7.66246 21.4844 7.75326 21.3662 7.81013C21.2479 7.867 21.1154 7.88733 20.9856 7.86853L18.4037 7.49953C18.3174 7.48713 18.2296 7.49186 18.1451 7.51346C18.0606 7.53506 17.9813 7.57306 17.9115 7.62526C17.8418 7.67753 17.783 7.74306 17.7385 7.818C17.6941 7.893 17.6648 7.976 17.6524 8.06226L17.6524 8.063L17.0889 12.0049C17.0639 12.1791 17.1092 12.3561 17.2147 12.497C17.3202 12.6379 17.4774 12.7311 17.6516 12.7561L17.6524 12.7562L20.2342 13.1252C20.3642 13.1437 20.4858 13.2004 20.5836 13.288C20.6814 13.3756 20.751 13.4903 20.7836 13.6175C20.8162 13.7446 20.8104 13.8786 20.7668 14.0025C20.7232 14.1263 20.6439 14.2345 20.5389 14.3133L18.4528 15.8777C18.312 15.9833 18.2189 16.1405 18.194 16.3148C18.1691 16.4891 18.2144 16.6661 18.3201 16.8069L20.7095 19.9927C20.8151 20.1335 20.9723 20.2267 21.1466 20.2515C21.3208 20.2765 21.4978 20.2311 21.6387 20.1255L23.7254 18.5611C23.8304 18.4826 23.9564 18.4369 24.0873 18.4299C24.2182 18.4228 24.3483 18.4547 24.4611 18.5215C24.5739 18.5883 24.6644 18.6871 24.7212 18.8053C24.778 18.9235 24.7984 19.0558 24.7801 19.1857L24.4117 21.7675C24.3993 21.8538 24.404 21.9417 24.4256 22.0261C24.4472 22.1106 24.4852 22.19 24.5374 22.2598C24.5897 22.3295 24.6552 22.3883 24.7301 22.4327C24.8051 22.4772 24.8881 22.5065 24.9744 22.5189L28.917 23.0823C28.9481 23.0863 28.9794 23.0884 29.0106 23.0884C29.1704 23.0886 29.325 23.031 29.4458 22.9264C29.5666 22.8218 29.6457 22.6771 29.6684 22.5189L30.0368 19.937C30.0552 19.807 30.1119 19.6855 30.1995 19.5877C30.2872 19.4899 30.4018 19.4203 30.529 19.3877C30.6562 19.3551 30.7902 19.3609 30.914 19.4045C31.0379 19.448 31.146 19.5273 31.2248 19.6323L32.7898 21.7184C32.8955 21.8593 33.0527 21.9523 33.227 21.9773C33.4012 22.0021 33.5782 21.9568 33.7191 21.8512L36.905 19.4617C37.0458 19.3561 37.1389 19.1989 37.1638 19.0247C37.1887 18.8504 37.1433 18.6734 37.0377 18.5325L35.4733 16.4465C35.3931 16.3421 35.3463 16.2158 35.3392 16.0843C35.3321 15.9528 35.365 15.8222 35.4335 15.7097C35.4984 15.5952 35.5967 15.5033 35.7154 15.4463C35.834 15.3894 35.9672 15.3701 36.0972 15.3911L38.6791 15.7595C38.7654 15.7719 38.8533 15.7672 38.9377 15.7456C39.0221 15.7241 39.1015 15.6861 39.1713 15.6338C39.2411 15.5815 39.2999 15.5161 39.3443 15.4411C39.3888 15.3661 39.4181 15.2831 39.4304 15.1969L39.9933 11.2542C40.0057 11.1679 40.0009 11.08 39.9793 10.9956C39.9578 10.9111 39.9198 10.8317 39.8675 10.762C39.8153 10.6922 39.7498 10.6334 39.6749 10.5889C39.5999 10.5445 39.5169 10.5153 39.4306 10.5029ZM17.432 34.0198H22.7418V35.3473H17.432V34.0198ZM17.432 36.6748H22.7418V37.3385C22.7418 38.0716 22.1475 38.6659 21.4144 38.6659H18.7594C18.0263 38.6659 17.432 38.0716 17.432 37.3385V36.6748ZM12.1481 25.2289C12.5105 25.5253 12.8892 25.8012 13.2824 26.0552C13.9096 26.4516 14.3816 27.0511 14.6198 27.7537L13.1962 29.1747L11.8175 28.2242C11.2139 27.8082 10.3873 27.9604 9.97128 28.5641C9.87155 28.7088 9.80155 28.872 9.76535 29.044L9.41755 30.7012H7.83988L7.49208 29.0466C7.34108 28.3292 6.63714 27.87 5.91974 28.021C5.74773 28.0572 5.58462 28.1272 5.43987 28.2269L4.06065 29.1747L2.85135 27.968L3.80114 26.5902C4.21754 25.9868 4.06588 25.1601 3.46248 24.7437C3.31762 24.6437 3.15433 24.5736 2.9821 24.5373L1.32745 24.1888V22.6118L2.9821 22.2633C3.69926 22.1113 4.15739 21.4067 4.00532 20.6894C3.96926 20.5193 3.90011 20.3579 3.80181 20.2144L2.85135 18.8325L4.06065 17.6259L5.44053 18.5763C6.04444 18.9919 6.87101 18.8393 7.28661 18.2354C7.38614 18.0907 7.45601 17.9278 7.49208 17.756L7.60828 17.2038C7.71461 17.9685 7.89074 18.7219 8.13461 19.4545C5.95069 19.7148 4.39135 21.6964 4.6517 23.8803C4.91205 26.0642 6.89361 27.6235 9.07748 27.3632C9.72488 27.2859 10.3435 27.051 10.8789 26.6788C11.4143 26.3067 11.8501 25.8088 12.1481 25.2289ZM11.1173 24.2937C10.6217 25.6713 9.10321 26.3863 7.72554 25.8908C6.34792 25.3952 5.63293 23.8766 6.12848 22.4989C6.31352 21.9846 6.65304 21.54 7.10054 21.2261C7.54808 20.9122 8.08168 20.7443 8.62828 20.7454H8.65355C9.26388 22.0615 10.0975 23.262 11.1173 24.2937ZM38.2065 14.3498L36.2817 14.075C35.1931 13.9195 34.1845 14.6761 34.029 15.7647C33.9544 16.2875 34.0904 16.8185 34.4074 17.2409L35.5735 18.7961L33.4496 20.389L32.2828 18.8345C31.623 17.9547 30.375 17.7763 29.4952 18.436C29.0728 18.7528 28.7934 19.2244 28.7186 19.7471L28.4498 21.6746L25.8221 21.2989L26.0969 19.3741C26.2528 18.2856 25.4966 17.2767 24.408 17.1209C24.1491 17.0838 23.8853 17.0981 23.6318 17.163C23.3784 17.2279 23.1402 17.3421 22.931 17.4991L21.3758 18.6653L19.7829 16.5414L21.3374 15.3746C22.2172 14.7148 22.3956 13.4668 21.7359 12.587C21.4191 12.1645 20.9475 11.8852 20.4248 11.8104L18.5 11.5356L18.8756 8.90793L20.8004 9.18273C21.889 9.3386 22.8978 8.58246 23.0536 7.49386C23.0908 7.23486 23.0764 6.97113 23.0116 6.71766C22.9466 6.46421 22.8324 6.22604 22.6754 6.01675L21.5053 4.46033L23.6292 2.86739L24.796 4.42249C25.4558 5.30234 26.7038 5.4808 27.5836 4.82106C28.006 4.50425 28.2854 4.03262 28.3602 3.50988L28.635 1.58508L31.2626 1.96008L30.9878 3.88488C30.8324 4.97355 31.5888 5.98207 32.6775 6.13755C33.2003 6.21222 33.7314 6.07616 34.1538 5.75923L35.7089 4.59307L37.3019 6.717L35.7468 7.8838C34.8669 8.54353 34.6884 9.7916 35.3482 10.6713C35.665 11.0939 36.1367 11.3732 36.6594 11.448L38.5842 11.7228L38.2065 14.3498Z" fill="#2644A2"/>
<path d="M28.5381 6.31863C25.6056 6.31863 23.2283 8.69592 23.2283 11.6284C23.2283 14.5609 25.6056 16.9382 28.5381 16.9382C31.4706 16.9382 33.8479 14.5609 33.8479 11.6284C33.8446 8.69725 31.4693 6.32187 28.5381 6.31863ZM28.5381 15.6107C26.3387 15.6107 24.5557 13.8278 24.5557 11.6284C24.5557 9.42898 26.3387 7.64605 28.5381 7.64605C30.7375 7.64605 32.5204 9.42898 32.5204 11.6284C32.5179 13.8267 30.7364 15.6082 28.5381 15.6107ZM19.4212 29.3737H20.7487V31.3649H19.4212V29.3737ZM17.1818 22.8553C13.0846 21.2547 11.0607 16.6357 12.6613 12.5385C13.2815 10.9509 14.3947 9.60412 15.8371 8.69605L15.1276 7.57305C10.7855 10.3085 9.48306 16.046 12.2185 20.3881C13.2779 22.0697 14.8486 23.3673 16.6999 24.0905C18.3387 24.7183 19.4208 26.2913 19.4212 28.0463H20.7487C20.7507 25.7438 19.3319 23.6789 17.1818 22.8553ZM32.6956 24.7276H37.3417V26.0551H32.6956V24.7276ZM31.6072 29.2195L32.4569 28.1995L36.4396 31.5177L35.5898 32.5375L31.6072 29.2195ZM28.7133 30.0374H30.0408V34.6835H28.7133V30.0374ZM0.675781 11.4723L5.98523 10.1453L6.30697 11.4323L0.997522 12.7596L0.675781 11.4723ZM1.77831 4.69259L2.54947 3.61296L7.19512 6.93125L6.42404 8.01085L1.77831 4.69259ZM7.46519 0.33343L8.75113 0.00463867L10.1087 5.31401L8.82273 5.64279L7.46519 0.33343Z" fill="#2644A2"/>
</svg>
