<svg width="61" height="60" viewBox="0 0 61 60" fill="none" xmlns="http://www.w3.org/2000/svg">
<g clip-path="url(#clip0_341_989)">
<g clip-path="url(#clip1_341_989)">
<g clip-path="url(#clip2_341_989)">
<mask id="mask0_341_989" style="mask-type:luminance" maskUnits="userSpaceOnUse" x="0" y="0" width="61" height="60">
<path d="M60.6504 0H0.650391V60H60.6504V0Z" fill="white"/>
</mask>
<g mask="url(#mask0_341_989)">
<path fill-rule="evenodd" clip-rule="evenodd" d="M40.0254 45.8789H21.2754V44.1211H40.0254V45.8789ZM39.0879 49.3945H22.2129V47.6367H39.0879V49.3945ZM38.8535 52.9102H22.4473V51.1523H38.8535V52.9102ZM26.2559 55.5469V56.7188C26.2559 57.5278 26.9117 58.1836 27.7207 58.1836H33.5801C34.3891 58.1836 35.0449 57.5278 35.0449 56.7188V55.5469H36.8027V56.7188C36.8027 58.4986 35.3599 59.9414 33.5801 59.9414H27.7207C25.9409 59.9414 24.4981 58.4986 24.4981 56.7188V55.5469H26.2559Z" fill="#2644A2"/>
<path fill-rule="evenodd" clip-rule="evenodd" d="M14.8773 6.26549C19.01 2.41532 24.556 0.0585938 30.6504 0.0585938C36.7448 0.0585938 42.2908 2.41532 46.4235 6.26549L45.2252 7.55163C41.405 3.99258 36.2828 1.81641 30.6504 1.81641C25.018 1.81641 19.8958 3.99257 16.0756 7.55163L14.8773 6.26549ZM7.50586 23.2031C7.50586 17.1087 9.86258 11.5627 13.7128 7.43006L14.9989 8.62828C11.4399 12.4485 9.26367 17.5707 9.26367 23.2031C9.26367 26.6843 10.0948 29.9688 11.5687 32.8715L10.0013 33.6673C8.40512 30.5238 7.50586 26.9672 7.50586 23.2031ZM47.588 7.43006C51.4382 11.5627 53.7949 17.1087 53.7949 23.2031C53.7949 26.9672 52.8957 30.5237 51.2995 33.6673L49.7321 32.8715C51.206 29.9688 52.0371 26.6843 52.0371 23.2031C52.0371 17.5707 49.8609 12.4485 46.3019 8.62829L47.588 7.43006ZM17.8069 42.4594C14.793 40.4454 12.2786 37.7428 10.4884 34.5758L12.0187 33.7108C13.673 36.6375 15.9975 39.1361 18.7835 40.9978C20.1403 41.9045 21.2368 43.1071 22.0122 44.4876L20.4796 45.3484C19.8372 44.2048 18.9296 43.2096 17.8069 42.4594ZM50.8124 34.5758C49.0222 37.7428 46.5078 40.4454 43.4939 42.4594C42.3712 43.2096 41.4636 44.2048 40.8212 45.3484L39.2886 44.4876C40.064 43.107 41.1605 41.9045 42.5173 40.9978C45.3033 39.1361 47.6278 36.6375 49.2821 33.7108L50.8124 34.5758ZM40.6438 45.6813C40.053 46.8522 39.7324 48.1616 39.7324 49.5129V51.2744H37.9746V49.5129C37.9746 47.8828 38.3614 46.3026 39.0745 44.8894L40.6438 45.6813ZM21.5684 49.5129C21.5684 48.1616 21.2478 46.8522 20.657 45.6814L22.2263 44.8895C22.9394 46.3026 23.3262 47.8829 23.3262 49.5129V51.2744H21.5684V49.5129ZM21.5684 53.2031V51.4416H23.3262V53.2031C23.3262 53.5894 23.4745 53.939 23.7189 54.2013L22.4327 55.3995C21.8972 54.8247 21.5684 54.0513 21.5684 53.2031ZM39.7324 51.4416V53.2031C39.7324 54.0513 39.4036 54.8247 38.8681 55.3995L37.5819 54.2013C37.8263 53.939 37.9746 53.5894 37.9746 53.2031V51.4416H39.7324ZM24.791 56.4258C23.9428 56.4258 23.1695 56.097 22.5946 55.5614L23.7929 54.2753C24.0552 54.5197 24.4048 54.668 24.791 54.668H30.3849V56.4258H24.791ZM38.7062 55.5614C38.1313 56.097 37.358 56.4258 36.5098 56.4258H30.9159V54.668H36.5098C36.896 54.668 37.2456 54.5197 37.5079 54.2753L38.7062 55.5614Z" fill="#2644A2"/>
<path fill-rule="evenodd" clip-rule="evenodd" d="M54.1966 4.94421L50.7854 7.80663L49.6555 6.46008L53.0667 3.59766L54.1966 4.94421ZM8.23406 3.59766L11.6453 6.46008L10.5154 7.80663L7.10414 4.94421L8.23406 3.59766ZM22.9197 10.8771C23.786 9.12147 25.5934 7.91007 27.6899 7.91007C28.7879 7.91007 29.8056 8.24515 30.6504 8.81294C31.4952 8.24506 32.5129 7.91007 33.6109 7.91007C35.7074 7.91007 37.5149 9.12144 38.3811 10.8771C40.3456 11.0438 41.8911 12.6877 41.8911 14.6952C41.8911 14.7339 41.8904 14.7721 41.8891 14.81C44.0339 15.4921 45.5918 17.4915 45.5918 19.8632C45.5918 21.3972 44.938 22.7738 43.8996 23.7398C44.4911 24.5022 44.8516 25.4577 44.8516 26.5077C44.8516 27.9782 44.151 29.2689 43.0811 30.0983C43.2655 30.5856 43.3715 31.1156 43.3715 31.6757C43.3715 33.9288 41.738 35.7753 39.604 36.1572C38.5603 37.9715 36.6026 39.1992 34.3511 39.1992C32.9568 39.1992 31.6732 38.7275 30.6504 37.9382C29.6276 38.7275 28.344 39.1992 26.9497 39.1992C24.6982 39.1992 22.7405 37.9715 21.6968 36.1572C19.5628 35.7753 17.9293 33.9288 17.9293 31.6757C17.9293 31.1156 18.0354 30.5855 18.2198 30.0984C17.1499 29.2689 16.4491 27.9782 16.4491 26.5077C16.4491 25.4576 16.8097 24.5023 17.4012 23.7399C16.3629 22.7738 15.709 21.3972 15.709 19.8632C15.709 17.4915 17.2669 15.492 19.4117 14.8099C19.4104 14.7721 19.4097 14.7339 19.4097 14.6952C19.4097 12.6877 20.9551 11.0438 22.9197 10.8771ZM31.5293 36.387C32.2855 37.044 33.2709 37.4413 34.3511 37.4413C36.0724 37.4413 37.5555 36.4303 38.2434 34.9681L38.4637 34.4999L38.98 34.4653C40.4564 34.3665 41.6136 33.156 41.6136 31.6757C41.6136 31.1558 41.4615 30.6674 41.1996 30.2343L40.7116 29.4272L41.551 28.9973C42.4715 28.5257 43.0938 27.589 43.0938 26.5077C43.0938 25.6315 42.6811 24.8514 42.0293 24.3283L41.0518 23.5439L42.1223 22.8921C43.1514 22.2656 43.834 21.1436 43.834 19.8632C43.834 18.0753 42.5042 16.5946 40.7708 16.3521L39.7769 16.2131L40.0458 15.2462C40.1031 15.0403 40.1333 14.8634 40.1333 14.6952C40.1333 13.5547 39.2082 12.6258 38.0606 12.621C38.057 12.6214 38.0505 12.6222 38.0402 12.6235C38.0326 12.6245 38.0247 12.6256 38.014 12.627C38.004 12.6284 37.9912 12.6301 37.978 12.6318C37.9514 12.6353 37.9162 12.6396 37.8766 12.6429L37.197 12.7002L36.9728 12.056C36.4887 10.6655 35.1671 9.66789 33.6109 9.66789C32.8335 9.66789 32.1162 9.91809 31.5293 10.3427V36.387ZM29.7715 10.3427C29.1846 9.91814 28.4672 9.66789 27.6899 9.66789C26.1338 9.66789 24.8122 10.6654 24.328 12.0561L24.1038 12.7002L23.4242 12.6429C23.3846 12.6396 23.3494 12.6353 23.3228 12.6318C23.3096 12.6301 23.2968 12.6284 23.2868 12.627C23.2761 12.6256 23.2682 12.6245 23.2606 12.6235C23.2503 12.6222 23.2438 12.6214 23.2402 12.621C22.0925 12.6258 21.1675 13.5546 21.1675 14.6952C21.1675 14.8634 21.1977 15.0403 21.255 15.2462L21.5239 16.2131L20.5299 16.3521C18.7966 16.5945 17.4668 18.0751 17.4668 19.8632C17.4668 21.1436 18.1494 22.2656 19.1785 22.8921L20.2489 23.5439L19.2716 24.3283C18.6197 24.8515 18.207 25.6316 18.207 26.5077C18.207 27.589 18.8293 28.5257 19.7498 28.9973L20.589 29.4272L20.1012 30.2342C19.8394 30.6674 19.6872 31.1559 19.6872 31.6757C19.6872 33.156 20.8444 34.3665 22.3208 34.4653L22.8371 34.4999L23.0574 34.9681C23.7453 36.4303 25.2284 37.4413 26.9497 37.4413C28.0299 37.4413 29.0153 37.044 29.7715 36.387V10.3427ZM2.76026 12.4681L6.94479 13.9912L6.34357 15.643L2.15904 14.1199L2.76026 12.4681ZM59.1418 14.1199L54.9572 15.643L54.356 13.9912L58.5405 12.4681L59.1418 14.1199ZM5.10351 24.4335H0.650391V22.6757H5.10351V24.4335ZM60.6504 24.4335H56.1973V22.6757H60.6504V24.4335ZM6.94479 33.118L2.76026 34.6411L2.15904 32.9893L6.34357 31.4662L6.94479 33.118ZM54.9572 31.4662L59.1418 32.9893L58.5405 34.6411L54.356 33.118L54.9572 31.4662ZM11.6453 40.6492L8.23406 43.5116L7.10414 42.165L10.5154 39.3026L11.6453 40.6492ZM50.7854 39.3026L54.1966 42.165L53.0667 43.5116L49.6555 40.6492L50.7854 39.3026Z" fill="#2644A2"/>
<path fill-rule="evenodd" clip-rule="evenodd" d="M20.5425 16.3504C20.543 16.3503 20.5435 16.3503 20.4077 15.4819C20.272 14.6136 20.2724 14.6135 20.2729 14.6134L20.274 14.6132L20.2762 14.6129L20.2814 14.6121C20.2851 14.6116 20.2894 14.611 20.2943 14.6103C20.3041 14.6089 20.3162 14.6074 20.3306 14.6056C20.3593 14.6022 20.3969 14.5983 20.4427 14.5948C20.534 14.5877 20.6587 14.582 20.8097 14.5846C21.1105 14.59 21.5239 14.6289 21.9906 14.7621C22.9428 15.0337 24.0787 15.689 24.9091 17.1422L23.3829 18.0143C22.807 17.0066 22.0738 16.6137 21.5084 16.4524C21.2164 16.3691 20.9588 16.3454 20.7785 16.3422C20.6889 16.3406 20.6203 16.3441 20.5787 16.3473C20.5579 16.3489 20.5441 16.3505 20.5379 16.3512C20.5348 16.3516 20.5337 16.3517 20.5346 16.3516L20.5379 16.3512L20.5401 16.3508L20.5425 16.3504ZM41.0269 14.6134C41.0274 14.6135 41.0278 14.6136 40.8921 15.4819C40.7563 16.3503 40.7568 16.3503 40.7573 16.3504L40.7597 16.3508L40.7624 16.3512L40.7652 16.3516C40.7661 16.3517 40.7655 16.3516 40.7624 16.3512C40.7562 16.3505 40.7419 16.3489 40.7211 16.3473C40.6795 16.3441 40.6109 16.3406 40.5213 16.3422C40.341 16.3454 40.0834 16.3691 39.7914 16.4524C39.226 16.6137 38.4928 17.0066 37.9169 18.0143L36.3907 17.1422C37.2211 15.689 38.357 15.0337 39.3092 14.7621C39.776 14.6289 40.1893 14.59 40.4901 14.5846C40.6411 14.582 40.7658 14.5877 40.8571 14.5948C40.9029 14.5983 40.9405 14.6022 40.9692 14.6056C40.9836 14.6074 40.9957 14.6089 41.0055 14.6103C41.0104 14.611 41.0147 14.6116 41.0184 14.6121L41.0236 14.6129L41.0258 14.6132L41.0269 14.6134ZM50.2788 20.8595V22.6173H48.521V20.8595H50.2788ZM19.2153 24.3698C19.2157 24.3695 19.2162 24.3692 18.7209 23.6431C18.2257 22.917 18.2261 22.9167 18.2266 22.9164L18.2276 22.9157L18.2298 22.9142L18.2351 22.9106C18.239 22.908 18.2437 22.9049 18.2491 22.9014C18.26 22.8943 18.2738 22.8854 18.2906 22.875C18.324 22.8542 18.3692 22.8272 18.4251 22.7961C18.5365 22.7341 18.6928 22.6547 18.886 22.5762C19.2686 22.4206 19.8196 22.2587 20.4666 22.2586C21.124 22.2586 21.864 22.4264 22.5958 22.9091C23.3216 23.388 23.9938 24.1462 24.5737 25.2577L23.0152 26.0708C22.5404 25.1607 22.051 24.6556 21.6278 24.3764C21.2105 24.1012 20.814 24.0164 20.4667 24.0164C20.109 24.0165 19.7871 24.1073 19.548 24.2045C19.4304 24.2524 19.3386 24.2994 19.2797 24.3321C19.2505 24.3484 19.2299 24.3609 19.2189 24.3677C19.2134 24.3711 19.2103 24.3731 19.2098 24.3734C19.21 24.3733 19.2105 24.373 19.211 24.3726L19.2131 24.3713L19.2153 24.3698ZM43.0732 22.9164C43.0737 22.9167 43.0741 22.917 42.5789 23.6431C42.0836 24.3692 42.0841 24.3695 42.0845 24.3698L42.0867 24.3713L42.0888 24.3726C42.0898 24.3734 42.0902 24.3736 42.09 24.3734C42.0895 24.3731 42.0864 24.3711 42.0809 24.3677C42.0699 24.3609 42.0493 24.3484 42.0201 24.3321C41.9612 24.2994 41.8694 24.2524 41.7518 24.2045C41.5127 24.1073 41.1908 24.0165 40.8331 24.0164C40.4858 24.0164 40.0893 24.1012 39.672 24.3764C39.2488 24.6556 38.7594 25.1607 38.2846 26.0708L36.7261 25.2577C37.306 24.1462 37.9782 23.388 38.704 22.9091C39.4358 22.4264 40.1758 22.2586 40.8332 22.2586C41.4802 22.2587 42.0312 22.4206 42.4138 22.5762C42.607 22.6547 42.7633 22.7341 42.8747 22.7961C42.9306 22.8272 42.9758 22.8542 43.0092 22.875C43.026 22.8854 43.0398 22.8943 43.0507 22.9014C43.054 22.9036 43.0571 22.9056 43.0599 22.9074C43.0616 22.9086 43.0632 22.9096 43.0647 22.9106L43.07 22.9142L43.0722 22.9157L43.0732 22.9164ZM50.2788 24.4923V26.2502H48.521V24.4923H50.2788ZM22.2185 36.2203C22.218 36.2203 22.2175 36.2203 22.2616 35.3425C22.3058 34.4647 22.3053 34.4647 22.3048 34.4647L22.3025 34.4645H22.3004C22.2993 34.4644 22.299 34.4644 22.2994 34.4644C22.3001 34.4644 22.3037 34.4645 22.3099 34.4646C22.3222 34.4648 22.3448 34.4648 22.3759 34.4639C22.4386 34.462 22.5337 34.4562 22.6491 34.4402C22.8853 34.4073 23.1764 34.3355 23.4457 34.1903C23.7064 34.0496 23.9435 33.8429 24.1082 33.5228C24.2745 33.1995 24.4013 32.6936 24.3257 31.8999L26.0756 31.7332C26.1758 32.7852 26.0232 33.6429 25.6713 34.3269C25.3179 35.0139 24.7983 35.4579 24.2803 35.7373C23.7709 36.0121 23.2613 36.1297 22.8914 36.1812C22.7038 36.2073 22.5446 36.2174 22.4287 36.2209C22.3706 36.2227 22.3228 36.2228 22.2871 36.2223C22.2693 36.2221 22.2544 36.2217 22.2427 36.2213C22.2369 36.2211 22.2318 36.2209 22.2276 36.2208L22.2219 36.2205L22.2195 36.2204L22.2185 36.2203ZM38.995 34.4647C38.9945 34.4647 38.994 34.4647 39.0382 35.3425C39.0823 36.2203 39.0818 36.2203 39.0813 36.2203L39.0803 36.2204L39.0779 36.2205L39.0722 36.2208C39.068 36.2209 39.0629 36.2211 39.0571 36.2213C39.0454 36.2217 39.0305 36.2221 39.0127 36.2223C38.977 36.2228 38.9292 36.2227 38.8711 36.2209C38.7552 36.2174 38.596 36.2073 38.4084 36.1812C38.0385 36.1297 37.5289 36.0121 37.0195 35.7373C36.5016 35.4579 35.9819 35.0139 35.6285 34.3269C35.2766 33.6429 35.124 32.7852 35.2242 31.7332L36.9741 31.8999C36.8985 32.6936 37.0253 33.1995 37.1916 33.5228C37.3563 33.8429 37.5934 34.0496 37.8541 34.1903C38.1234 34.3355 38.4145 34.4073 38.6507 34.4402C38.7661 34.4562 38.8612 34.462 38.9239 34.4639C38.955 34.4648 38.9776 34.4648 38.9899 34.4646C38.9961 34.4645 38.9997 34.4644 39.0004 34.4644C39.0008 34.4644 39.0005 34.4644 38.9994 34.4645H38.9973L38.995 34.4647Z" fill="#2644A2"/>
</g>
</g>
</g>
</g>
<defs>
<clipPath id="clip0_341_989">
<rect width="60" height="60" fill="white" transform="translate(0.650391)"/>
</clipPath>
<clipPath id="clip1_341_989">
<rect width="60" height="60" fill="white" transform="translate(0.650391)"/>
</clipPath>
<clipPath id="clip2_341_989">
<rect width="60" height="60" fill="white" transform="translate(0.650391)"/>
</clipPath>
</defs>
</svg>
